<svg xmlns="http://www.w3.org/2000/svg" xmlns:xlink="http://www.w3.org/1999/xlink" width="1376" height="890" viewbox="0 0 1376 890"><path transform="translate(1006.767578125 603.8974546730159) scale(1) translate(-686 -294) rotate(0)" d="M 109 0 L 505.6925592801647 0" fill="none" stroke="#000000" stroke-width="5"></path><polygon transform="translate(1006.767578125 603.8974546730159) scale(1) translate(-686 -294) rotate(0) translate(530.554709897913 0) rotate(0)" points="-24.8621506177483,0 -27.62461179749811,9.20820393249937 0,0 -27.62461179749811,-9.20820393249937" fill="undefined" stroke="none" stroke-width="5"></polygon><rect transform="translate(1006.767578125 603.8974546730159) scale(1) translate(-378.65372035991766 -294) rotate(0) translate(0 -35.5) translate(0 0) translate(-43.888916015625 0)" x="0" y="0" width="87.77783203125" height="23" rx="5" ry="5" fill="#ffffff" stroke="none"></rect><text xml:space="preserve" transform="translate(1006.767578125 603.8974546730159) scale(1) translate(-378.65372035991766 -294) rotate(0) translate(0 -35.5) translate(0 0) translate(-43.888916015625 0)" x="5" y="15" font-family="sans-serif" font-size="13" font-weight="normal" text-anchor="left" fill="#000000">REFERS_TO</text><rect transform="translate(1006.767578125 603.8974546730159) scale(1) translate(-378.65372035991766 -294) rotate(0) translate(0 -35.5) translate(0 23) translate(-61.43310546875 0)" x="0" y="0" width="122.8662109375" height="48" rx="0" ry="0" fill="white" stroke="none"></rect><text xml:space="preserve" transform="translate(1006.767578125 603.8974546730159) scale(1) translate(-378.65372035991766 -294) rotate(0) translate(0 -35.5) translate(0 23) translate(-61.43310546875 0)" x="86.7236328125" y="8.5" font-family="sans-serif" font-size="10" font-weight="normal" text-anchor="end" fill="#000000">patient_count:</text><text xml:space="preserve" transform="translate(1006.767578125 603.8974546730159) scale(1) translate(-378.65372035991766 -294) rotate(0) translate(0 -35.5) translate(0 23) translate(-61.43310546875 0)" x="89.501953125" y="8.5" font-family="sans-serif" font-size="10" font-weight="normal" text-anchor="start" fill="#000000">29</text><text xml:space="preserve" transform="translate(1006.767578125 603.8974546730159) scale(1) translate(-378.65372035991766 -294) rotate(0) translate(0 -35.5) translate(0 23) translate(-61.43310546875 0)" x="86.7236328125" y="20.5" font-family="sans-serif" font-size="10" font-weight="normal" text-anchor="end" fill="#000000">transaction_count:</text><text xml:space="preserve" transform="translate(1006.767578125 603.8974546730159) scale(1) translate(-378.65372035991766 -294) rotate(0) translate(0 -35.5) translate(0 23) translate(-61.43310546875 0)" x="89.501953125" y="20.5" font-family="sans-serif" font-size="10" font-weight="normal" text-anchor="start" fill="#000000">44</text><text xml:space="preserve" transform="translate(1006.767578125 603.8974546730159) scale(1) translate(-378.65372035991766 -294) rotate(0) translate(0 -35.5) translate(0 23) translate(-61.43310546875 0)" x="86.7236328125" y="32.5" font-family="sans-serif" font-size="10" font-weight="normal" text-anchor="end" fill="#000000">average_day_wait:</text><text xml:space="preserve" transform="translate(1006.767578125 603.8974546730159) scale(1) translate(-378.65372035991766 -294) rotate(0) translate(0 -35.5) translate(0 23) translate(-61.43310546875 0)" x="89.501953125" y="32.5" font-family="sans-serif" font-size="10" font-weight="normal" text-anchor="start" fill="#000000">47.455</text><text xml:space="preserve" transform="translate(1006.767578125 603.8974546730159) scale(1) translate(-378.65372035991766 -294) rotate(0) translate(0 -35.5) translate(0 23) translate(-61.43310546875 0)" x="86.7236328125" y="44.5" font-family="sans-serif" font-size="10" font-weight="normal" text-anchor="end" fill="#000000">std_day_wait:</text><text xml:space="preserve" transform="translate(1006.767578125 603.8974546730159) scale(1) translate(-378.65372035991766 -294) rotate(0) translate(0 -35.5) translate(0 23) translate(-61.43310546875 0)" x="89.501953125" y="44.5" font-family="sans-serif" font-size="10" font-weight="normal" text-anchor="start" fill="#000000">56.183</text><path transform="translate(1006.767578125 603.8974546730159) scale(1) translate(-686 -294) rotate(30.691775532126474)" d="M 109 0 L 238.0041762325955 0" fill="none" stroke="#000000" stroke-width="5"></path><polygon transform="translate(1006.767578125 603.8974546730159) scale(1) translate(-686 -294) rotate(30.691775532126474) translate(262.8663268503438 0) rotate(0)" points="-24.8621506177483,0 -27.62461179749811,9.20820393249937 0,0 -27.62461179749811,-9.20820393249937" fill="undefined" stroke="none" stroke-width="5"></polygon><rect transform="translate(1006.767578125 603.8974546730159) scale(1) translate(-536.801121774387 -205.44115336718622) rotate(30.691775532126474) translate(0 -11.5) translate(0 0) translate(-50.50634765625 0)" x="0" y="0" width="101.0126953125" height="23" rx="5" ry="5" fill="#ffffff" stroke="none"></rect><text xml:space="preserve" transform="translate(1006.767578125 603.8974546730159) scale(1) translate(-536.801121774387 -205.44115336718622) rotate(30.691775532126474) translate(0 -11.5) translate(0 0) translate(-50.50634765625 0)" x="5" y="15" font-family="sans-serif" font-size="13" font-weight="normal" text-anchor="left" fill="#000000">IN_GROUPING</text><path transform="translate(1006.767578125 603.8974546730159) scale(1) translate(-686 -294) rotate(55.391164727951946)" d="M 109 0 L 429.1552233512557 0" fill="none" stroke="#000000" stroke-width="5"></path><polygon transform="translate(1006.767578125 603.8974546730159) scale(1) translate(-686 -294) rotate(55.391164727951946) translate(454.017373969004 0) rotate(0)" points="-24.8621506177483,0 -27.62461179749811,9.20820393249937 0,0 -27.62461179749811,-9.20820393249937" fill="undefined" stroke="none" stroke-width="5"></polygon><rect transform="translate(1006.767578125 603.8974546730159) scale(1) translate(-533.1718086938614 -72.53599604641329) rotate(55.391164727951946) translate(0 -11.5) translate(0 0) translate(-68.086181640625 0)" x="0" y="0" width="136.17236328125" height="23" rx="5" ry="5" fill="#ffffff" stroke="none"></rect><text xml:space="preserve" transform="translate(1006.767578125 603.8974546730159) scale(1) translate(-533.1718086938614 -72.53599604641329) rotate(55.391164727951946) translate(0 -11.5) translate(0 0) translate(-68.086181640625 0)" x="5" y="15" font-family="sans-serif" font-size="13" font-weight="normal" text-anchor="left" fill="#000000">IN_CLASSIFICATION</text><path transform="translate(1006.767578125 603.8974546730159) scale(1) translate(-686 -294) rotate(-31.230587655671822)" d="M 109 0 L 240.1081418746169 0" fill="none" stroke="#000000" stroke-width="5"></path><polygon transform="translate(1006.767578125 603.8974546730159) scale(1) translate(-686 -294) rotate(-31.230587655671822) translate(264.9702924923652 0) rotate(0)" points="-24.8621506177483,0 -27.62461179749811,9.20820393249937 0,0 -27.62461179749811,-9.20820393249937" fill="undefined" stroke="none" stroke-width="5"></polygon><rect transform="translate(1006.767578125 603.8974546730159) scale(1) translate(-536.7409807129411 -384.50341895338687) rotate(-31.230587655671822) translate(0 -11.5) translate(0 0) translate(-67.7275390625 0)" x="0" y="0" width="135.455078125" height="23" rx="5" ry="5" fill="#ffffff" stroke="none"></rect><text xml:space="preserve" transform="translate(1006.767578125 603.8974546730159) scale(1) translate(-536.7409807129411 -384.50341895338687) rotate(-31.230587655671822) translate(0 -11.5) translate(0 0) translate(-67.7275390625 0)" x="5" y="15" font-family="sans-serif" font-size="13" font-weight="normal" text-anchor="left" fill="#000000">IN_SPECIALIZATION</text><path transform="translate(1006.767578125 603.8974546730159) scale(1) translate(-46.44529010208697 -294) rotate(-148.76941234432817)" d="M 109 0 L 240.10814187461685 0" fill="none" stroke="#000000" stroke-width="5"></path><polygon transform="translate(1006.767578125 603.8974546730159) scale(1) translate(-46.44529010208697 -294) rotate(-148.76941234432817) translate(264.97029249236516 0) rotate(0)" points="-24.8621506177483,0 -27.62461179749811,9.20820393249937 0,0 -27.62461179749811,-9.20820393249937" fill="undefined" stroke="none" stroke-width="5"></polygon><rect transform="translate(1006.767578125 603.8974546730159) scale(1) translate(-195.7043093891459 -384.5034189533869) rotate(31.230587655671826) translate(0 -11.5) translate(0 0) translate(-67.7275390625 0)" x="0" y="0" width="135.455078125" height="23" rx="5" ry="5" fill="#ffffff" stroke="none"></rect><text xml:space="preserve" transform="translate(1006.767578125 603.8974546730159) scale(1) translate(-195.7043093891459 -384.5034189533869) rotate(31.230587655671826) translate(0 -11.5) translate(0 0) translate(-67.7275390625 0)" x="5" y="15" font-family="sans-serif" font-size="13" font-weight="normal" text-anchor="left" fill="#000000">IN_SPECIALIZATION</text><path transform="translate(1006.767578125 603.8974546730159) scale(1) translate(-46.44529010208697 -294) rotate(149.30822446787354)" d="M 109 0 L 238.00417623259557 0" fill="none" stroke="#000000" stroke-width="5"></path><polygon transform="translate(1006.767578125 603.8974546730159) scale(1) translate(-46.44529010208697 -294) rotate(149.30822446787354) translate(262.86632685034385 0) rotate(0)" points="-24.8621506177483,0 -27.62461179749811,9.20820393249937 0,0 -27.62461179749811,-9.20820393249937" fill="undefined" stroke="none" stroke-width="5"></polygon><rect transform="translate(1006.767578125 603.8974546730159) scale(1) translate(-195.64416832770007 -205.44115336718622) rotate(329.3082244678736) translate(0 -11.5) translate(0 0) translate(-50.50634765625 0)" x="0" y="0" width="101.0126953125" height="23" rx="5" ry="5" fill="#ffffff" stroke="none"></rect><text xml:space="preserve" transform="translate(1006.767578125 603.8974546730159) scale(1) translate(-195.64416832770007 -205.44115336718622) rotate(329.3082244678736) translate(0 -11.5) translate(0 0) translate(-50.50634765625 0)" x="5" y="15" font-family="sans-serif" font-size="13" font-weight="normal" text-anchor="left" fill="#000000">IN_GROUPING</text><path transform="translate(1006.767578125 603.8974546730159) scale(1) translate(-46.44529010208697 -294) rotate(124.60883527204807)" d="M 109 0 L 429.1552233512557 0" fill="none" stroke="#000000" stroke-width="5"></path><polygon transform="translate(1006.767578125 603.8974546730159) scale(1) translate(-46.44529010208697 -294) rotate(124.60883527204807) translate(454.017373969004 0) rotate(0)" points="-24.8621506177483,0 -27.62461179749811,9.20820393249937 0,0 -27.62461179749811,-9.20820393249937" fill="undefined" stroke="none" stroke-width="5"></polygon><rect transform="translate(1006.767578125 603.8974546730159) scale(1) translate(-199.27348140822562 -72.53599604641329) rotate(304.60883527204805) translate(0 -11.5) translate(0 0) translate(-68.086181640625 0)" x="0" y="0" width="136.17236328125" height="23" rx="5" ry="5" fill="#ffffff" stroke="none"></rect><text xml:space="preserve" transform="translate(1006.767578125 603.8974546730159) scale(1) translate(-199.27348140822562 -72.53599604641329) rotate(304.60883527204805) translate(0 -11.5) translate(0 0) translate(-68.086181640625 0)" x="5" y="15" font-family="sans-serif" font-size="13" font-weight="normal" text-anchor="left" fill="#000000">IN_CLASSIFICATION</text><circle transform="translate(1006.767578125 603.8974546730159) scale(1)" cx="-686" cy="-294" r="102" fill="#ffffff" stroke="#000000" strokewidth="4"></circle><text xml:space="preserve" transform="translate(1006.767578125 603.8974546730159) scale(1) translate(-686 -294) scale(1) translate(0 0) translate(0 0)" x="0" y="10.5" font-family="sans-serif" font-size="40" font-weight="normal" text-anchor="middle" fill="#000000">Provider</text><rect transform="translate(1006.767578125 603.8974546730159) scale(1) translate(-686 -294) translate(-104 -83.99999999999999) translate(0 0) translate(-216.767578125 0)" x="0" y="0" width="216.767578125" height="168" rx="0" ry="0" fill="white" stroke="none"></rect><text xml:space="preserve" transform="translate(1006.767578125 603.8974546730159) scale(1) translate(-686 -294) translate(-104 -83.99999999999999) translate(0 0) translate(-216.767578125 0)" x="138.974609375" y="8.5" font-family="sans-serif" font-size="10" font-weight="normal" text-anchor="end" fill="#000000">npi:</text><text xml:space="preserve" transform="translate(1006.767578125 603.8974546730159) scale(1) translate(-686 -294) translate(-104 -83.99999999999999) translate(0 0) translate(-216.767578125 0)" x="141.7529296875" y="8.5" font-family="sans-serif" font-size="10" font-weight="normal" text-anchor="start" fill="#000000">1043215882</text><text xml:space="preserve" transform="translate(1006.767578125 603.8974546730159) scale(1) translate(-686 -294) translate(-104 -83.99999999999999) translate(0 0) translate(-216.767578125 0)" x="138.974609375" y="20.5" font-family="sans-serif" font-size="10" font-weight="normal" text-anchor="end" fill="#000000">entity_type_code:</text><text xml:space="preserve" transform="translate(1006.767578125 603.8974546730159) scale(1) translate(-686 -294) translate(-104 -83.99999999999999) translate(0 0) translate(-216.767578125 0)" x="141.7529296875" y="20.5" font-family="sans-serif" font-size="10" font-weight="normal" text-anchor="start" fill="#000000">1</text><text xml:space="preserve" transform="translate(1006.767578125 603.8974546730159) scale(1) translate(-686 -294) translate(-104 -83.99999999999999) translate(0 0) translate(-216.767578125 0)" x="138.974609375" y="32.5" font-family="sans-serif" font-size="10" font-weight="normal" text-anchor="end" fill="#000000">provider_last_name:</text><text xml:space="preserve" transform="translate(1006.767578125 603.8974546730159) scale(1) translate(-686 -294) translate(-104 -83.99999999999999) translate(0 0) translate(-216.767578125 0)" x="141.7529296875" y="32.5" font-family="sans-serif" font-size="10" font-weight="normal" text-anchor="start" fill="#000000">HENSLEY</text><text xml:space="preserve" transform="translate(1006.767578125 603.8974546730159) scale(1) translate(-686 -294) translate(-104 -83.99999999999999) translate(0 0) translate(-216.767578125 0)" x="138.974609375" y="44.5" font-family="sans-serif" font-size="10" font-weight="normal" text-anchor="end" fill="#000000">provider_first_name:</text><text xml:space="preserve" transform="translate(1006.767578125 603.8974546730159) scale(1) translate(-686 -294) translate(-104 -83.99999999999999) translate(0 0) translate(-216.767578125 0)" x="141.7529296875" y="44.5" font-family="sans-serif" font-size="10" font-weight="normal" text-anchor="start" fill="#000000">JOSEPH</text><text xml:space="preserve" transform="translate(1006.767578125 603.8974546730159) scale(1) translate(-686 -294) translate(-104 -83.99999999999999) translate(0 0) translate(-216.767578125 0)" x="138.974609375" y="56.5" font-family="sans-serif" font-size="10" font-weight="normal" text-anchor="end" fill="#000000">provider_middle_name:</text><text xml:space="preserve" transform="translate(1006.767578125 603.8974546730159) scale(1) translate(-686 -294) translate(-104 -83.99999999999999) translate(0 0) translate(-216.767578125 0)" x="141.7529296875" y="56.5" font-family="sans-serif" font-size="10" font-weight="normal" text-anchor="start" fill="#000000"></text><text xml:space="preserve" transform="translate(1006.767578125 603.8974546730159) scale(1) translate(-686 -294) translate(-104 -83.99999999999999) translate(0 0) translate(-216.767578125 0)" x="138.974609375" y="68.5" font-family="sans-serif" font-size="10" font-weight="normal" text-anchor="end" fill="#000000">provider_name_prefix:</text><text xml:space="preserve" transform="translate(1006.767578125 603.8974546730159) scale(1) translate(-686 -294) translate(-104 -83.99999999999999) translate(0 0) translate(-216.767578125 0)" x="141.7529296875" y="68.5" font-family="sans-serif" font-size="10" font-weight="normal" text-anchor="start" fill="#000000"></text><text xml:space="preserve" transform="translate(1006.767578125 603.8974546730159) scale(1) translate(-686 -294) translate(-104 -83.99999999999999) translate(0 0) translate(-216.767578125 0)" x="138.974609375" y="80.5" font-family="sans-serif" font-size="10" font-weight="normal" text-anchor="end" fill="#000000">provider_name_suffix:</text><text xml:space="preserve" transform="translate(1006.767578125 603.8974546730159) scale(1) translate(-686 -294) translate(-104 -83.99999999999999) translate(0 0) translate(-216.767578125 0)" x="141.7529296875" y="80.5" font-family="sans-serif" font-size="10" font-weight="normal" text-anchor="start" fill="#000000"></text><text xml:space="preserve" transform="translate(1006.767578125 603.8974546730159) scale(1) translate(-686 -294) translate(-104 -83.99999999999999) translate(0 0) translate(-216.767578125 0)" x="138.974609375" y="92.5" font-family="sans-serif" font-size="10" font-weight="normal" text-anchor="end" fill="#000000">provider_credential:</text><text xml:space="preserve" transform="translate(1006.767578125 603.8974546730159) scale(1) translate(-686 -294) translate(-104 -83.99999999999999) translate(0 0) translate(-216.767578125 0)" x="141.7529296875" y="92.5" font-family="sans-serif" font-size="10" font-weight="normal" text-anchor="start" fill="#000000"></text><text xml:space="preserve" transform="translate(1006.767578125 603.8974546730159) scale(1) translate(-686 -294) translate(-104 -83.99999999999999) translate(0 0) translate(-216.767578125 0)" x="138.974609375" y="104.5" font-family="sans-serif" font-size="10" font-weight="normal" text-anchor="end" fill="#000000">provider_business_address_1:</text><text xml:space="preserve" transform="translate(1006.767578125 603.8974546730159) scale(1) translate(-686 -294) translate(-104 -83.99999999999999) translate(0 0) translate(-216.767578125 0)" x="141.7529296875" y="104.5" font-family="sans-serif" font-size="10" font-weight="normal" text-anchor="start" fill="#000000">507 W MAIN ST</text><text xml:space="preserve" transform="translate(1006.767578125 603.8974546730159) scale(1) translate(-686 -294) translate(-104 -83.99999999999999) translate(0 0) translate(-216.767578125 0)" x="138.974609375" y="116.5" font-family="sans-serif" font-size="10" font-weight="normal" text-anchor="end" fill="#000000">provider_business_address_2:</text><text xml:space="preserve" transform="translate(1006.767578125 603.8974546730159) scale(1) translate(-686 -294) translate(-104 -83.99999999999999) translate(0 0) translate(-216.767578125 0)" x="141.7529296875" y="116.5" font-family="sans-serif" font-size="10" font-weight="normal" text-anchor="start" fill="#000000"></text><text xml:space="preserve" transform="translate(1006.767578125 603.8974546730159) scale(1) translate(-686 -294) translate(-104 -83.99999999999999) translate(0 0) translate(-216.767578125 0)" x="138.974609375" y="128.5" font-family="sans-serif" font-size="10" font-weight="normal" text-anchor="end" fill="#000000">provider_business_city:</text><text xml:space="preserve" transform="translate(1006.767578125 603.8974546730159) scale(1) translate(-686 -294) translate(-104 -83.99999999999999) translate(0 0) translate(-216.767578125 0)" x="141.7529296875" y="128.5" font-family="sans-serif" font-size="10" font-weight="normal" text-anchor="start" fill="#000000">HOHENWALD</text><text xml:space="preserve" transform="translate(1006.767578125 603.8974546730159) scale(1) translate(-686 -294) translate(-104 -83.99999999999999) translate(0 0) translate(-216.767578125 0)" x="138.974609375" y="140.5" font-family="sans-serif" font-size="10" font-weight="normal" text-anchor="end" fill="#000000">provider_business_state:</text><text xml:space="preserve" transform="translate(1006.767578125 603.8974546730159) scale(1) translate(-686 -294) translate(-104 -83.99999999999999) translate(0 0) translate(-216.767578125 0)" x="141.7529296875" y="140.5" font-family="sans-serif" font-size="10" font-weight="normal" text-anchor="start" fill="#000000">TN</text><text xml:space="preserve" transform="translate(1006.767578125 603.8974546730159) scale(1) translate(-686 -294) translate(-104 -83.99999999999999) translate(0 0) translate(-216.767578125 0)" x="138.974609375" y="152.5" font-family="sans-serif" font-size="10" font-weight="normal" text-anchor="end" fill="#000000">provider_business_zip5:</text><text xml:space="preserve" transform="translate(1006.767578125 603.8974546730159) scale(1) translate(-686 -294) translate(-104 -83.99999999999999) translate(0 0) translate(-216.767578125 0)" x="141.7529296875" y="152.5" font-family="sans-serif" font-size="10" font-weight="normal" text-anchor="start" fill="#000000">38462</text><text xml:space="preserve" transform="translate(1006.767578125 603.8974546730159) scale(1) translate(-686 -294) translate(-104 -83.99999999999999) translate(0 0) translate(-216.767578125 0)" x="138.974609375" y="164.5" font-family="sans-serif" font-size="10" font-weight="normal" text-anchor="end" fill="#000000">primary_taxonomy_code:</text><text xml:space="preserve" transform="translate(1006.767578125 603.8974546730159) scale(1) translate(-686 -294) translate(-104 -83.99999999999999) translate(0 0) translate(-216.767578125 0)" x="141.7529296875" y="164.5" font-family="sans-serif" font-size="10" font-weight="normal" text-anchor="start" fill="#000000">207Q00000X</text><circle transform="translate(1006.767578125 603.8974546730159) scale(1)" cx="-46.44529010208697" cy="-294" r="102" fill="#ffffff" stroke="#000000" strokewidth="4"></circle><text xml:space="preserve" transform="translate(1006.767578125 603.8974546730159) scale(1) translate(-46.44529010208697 -294) scale(1) translate(0 0) translate(0 0)" x="0" y="13" font-family="sans-serif" font-size="50" font-weight="normal" text-anchor="middle" fill="#000000">Facility</text><rect transform="translate(1006.767578125 603.8974546730159) scale(1) translate(-46.44529010208697 -294) translate(104 -54) translate(0 0) translate(0 0)" x="0" y="0" width="311.42578125" height="108" rx="0" ry="0" fill="white" stroke="none"></rect><text xml:space="preserve" transform="translate(1006.767578125 603.8974546730159) scale(1) translate(-46.44529010208697 -294) translate(104 -54) translate(0 0) translate(0 0)" x="138.974609375" y="8.5" font-family="sans-serif" font-size="10" font-weight="normal" text-anchor="end" fill="#000000">npi:</text><text xml:space="preserve" transform="translate(1006.767578125 603.8974546730159) scale(1) translate(-46.44529010208697 -294) translate(104 -54) translate(0 0) translate(0 0)" x="141.7529296875" y="8.5" font-family="sans-serif" font-size="10" font-weight="normal" text-anchor="start" fill="#000000">1003028770</text><text xml:space="preserve" transform="translate(1006.767578125 603.8974546730159) scale(1) translate(-46.44529010208697 -294) translate(104 -54) translate(0 0) translate(0 0)" x="138.974609375" y="20.5" font-family="sans-serif" font-size="10" font-weight="normal" text-anchor="end" fill="#000000">entity_type_code:</text><text xml:space="preserve" transform="translate(1006.767578125 603.8974546730159) scale(1) translate(-46.44529010208697 -294) translate(104 -54) translate(0 0) translate(0 0)" x="141.7529296875" y="20.5" font-family="sans-serif" font-size="10" font-weight="normal" text-anchor="start" fill="#000000">2</text><text xml:space="preserve" transform="translate(1006.767578125 603.8974546730159) scale(1) translate(-46.44529010208697 -294) translate(104 -54) translate(0 0) translate(0 0)" x="138.974609375" y="32.5" font-family="sans-serif" font-size="10" font-weight="normal" text-anchor="end" fill="#000000">provider_org_name:</text><text xml:space="preserve" transform="translate(1006.767578125 603.8974546730159) scale(1) translate(-46.44529010208697 -294) translate(104 -54) translate(0 0) translate(0 0)" x="141.7529296875" y="32.5" font-family="sans-serif" font-size="10" font-weight="normal" text-anchor="start" fill="#000000">SPRING HILL DERMATOLOGY PLC	</text><text xml:space="preserve" transform="translate(1006.767578125 603.8974546730159) scale(1) translate(-46.44529010208697 -294) translate(104 -54) translate(0 0) translate(0 0)" x="138.974609375" y="44.5" font-family="sans-serif" font-size="10" font-weight="normal" text-anchor="end" fill="#000000">provider_business_address_1:</text><text xml:space="preserve" transform="translate(1006.767578125 603.8974546730159) scale(1) translate(-46.44529010208697 -294) translate(104 -54) translate(0 0) translate(0 0)" x="141.7529296875" y="44.5" font-family="sans-serif" font-size="10" font-weight="normal" text-anchor="start" fill="#000000">1229 RESERVE BLVD	</text><text xml:space="preserve" transform="translate(1006.767578125 603.8974546730159) scale(1) translate(-46.44529010208697 -294) translate(104 -54) translate(0 0) translate(0 0)" x="138.974609375" y="56.5" font-family="sans-serif" font-size="10" font-weight="normal" text-anchor="end" fill="#000000">provider_business_address_2:</text><text xml:space="preserve" transform="translate(1006.767578125 603.8974546730159) scale(1) translate(-46.44529010208697 -294) translate(104 -54) translate(0 0) translate(0 0)" x="141.7529296875" y="56.5" font-family="sans-serif" font-size="10" font-weight="normal" text-anchor="start" fill="#000000">SUITE 200</text><text xml:space="preserve" transform="translate(1006.767578125 603.8974546730159) scale(1) translate(-46.44529010208697 -294) translate(104 -54) translate(0 0) translate(0 0)" x="138.974609375" y="68.5" font-family="sans-serif" font-size="10" font-weight="normal" text-anchor="end" fill="#000000">provider_business_city:</text><text xml:space="preserve" transform="translate(1006.767578125 603.8974546730159) scale(1) translate(-46.44529010208697 -294) translate(104 -54) translate(0 0) translate(0 0)" x="141.7529296875" y="68.5" font-family="sans-serif" font-size="10" font-weight="normal" text-anchor="start" fill="#000000">SPRING HILL	</text><text xml:space="preserve" transform="translate(1006.767578125 603.8974546730159) scale(1) translate(-46.44529010208697 -294) translate(104 -54) translate(0 0) translate(0 0)" x="138.974609375" y="80.5" font-family="sans-serif" font-size="10" font-weight="normal" text-anchor="end" fill="#000000">provider_business_state:</text><text xml:space="preserve" transform="translate(1006.767578125 603.8974546730159) scale(1) translate(-46.44529010208697 -294) translate(104 -54) translate(0 0) translate(0 0)" x="141.7529296875" y="80.5" font-family="sans-serif" font-size="10" font-weight="normal" text-anchor="start" fill="#000000">TN</text><text xml:space="preserve" transform="translate(1006.767578125 603.8974546730159) scale(1) translate(-46.44529010208697 -294) translate(104 -54) translate(0 0) translate(0 0)" x="138.974609375" y="92.5" font-family="sans-serif" font-size="10" font-weight="normal" text-anchor="end" fill="#000000">provider_business_zip5:</text><text xml:space="preserve" transform="translate(1006.767578125 603.8974546730159) scale(1) translate(-46.44529010208697 -294) translate(104 -54) translate(0 0) translate(0 0)" x="141.7529296875" y="92.5" font-family="sans-serif" font-size="10" font-weight="normal" text-anchor="start" fill="#000000">37174</text><text xml:space="preserve" transform="translate(1006.767578125 603.8974546730159) scale(1) translate(-46.44529010208697 -294) translate(104 -54) translate(0 0) translate(0 0)" x="138.974609375" y="104.5" font-family="sans-serif" font-size="10" font-weight="normal" text-anchor="end" fill="#000000">primary_taxonomy_code:</text><text xml:space="preserve" transform="translate(1006.767578125 603.8974546730159) scale(1) translate(-46.44529010208697 -294) translate(104 -54) translate(0 0) translate(0 0)" x="141.7529296875" y="104.5" font-family="sans-serif" font-size="10" font-weight="normal" text-anchor="start" fill="#000000">207N00000X</text><circle transform="translate(1006.767578125 603.8974546730159) scale(1)" cx="-366.2226450510435" cy="-104.19218059569877" r="102" fill="#ffffff" stroke="#000000" strokewidth="4"></circle><text xml:space="preserve" transform="translate(1006.767578125 603.8974546730159) scale(1) translate(-366.2226450510435 -104.19218059569877) scale(0.8828126171874999) translate(0 0) translate(0 0)" x="0" y="13" font-family="sans-serif" font-size="50" font-weight="normal" text-anchor="middle" fill="#000000">Grouping</text><rect transform="translate(1006.767578125 603.8974546730159) scale(1) translate(-366.2226450510435 -104.19218059569877) translate(6.368163355566236e-15 104) translate(0 0) translate(-52.53173828125 0)" x="0" y="0" width="105.0634765625" height="12" rx="0" ry="0" fill="white" stroke="none"></rect><text xml:space="preserve" transform="translate(1006.767578125 603.8974546730159) scale(1) translate(-366.2226450510435 -104.19218059569877) translate(6.368163355566236e-15 104) translate(0 0) translate(-52.53173828125 0)" x="75.0537109375" y="8.5" font-family="sans-serif" font-size="10" font-weight="normal" text-anchor="end" fill="#000000">grouping_name:</text><text xml:space="preserve" transform="translate(1006.767578125 603.8974546730159) scale(1) translate(-366.2226450510435 -104.19218059569877) translate(6.368163355566236e-15 104) translate(0 0) translate(-52.53173828125 0)" x="77.83203125" y="8.5" font-family="sans-serif" font-size="10" font-weight="normal" text-anchor="start" fill="#000000">string</text><circle transform="translate(1006.767578125 603.8974546730159) scale(1)" cx="-366.2226450510435" cy="169.39077100520936" r="102" fill="#ffffff" stroke="#000000" strokewidth="4"></circle><text xml:space="preserve" transform="translate(1006.767578125 603.8974546730159) scale(1) translate(-366.2226450510435 169.39077100520936) scale(0.62890662109375) translate(0 0) translate(0 0)" x="0" y="13" font-family="sans-serif" font-size="50" font-weight="normal" text-anchor="middle" fill="#000000">Classification</text><rect transform="translate(1006.767578125 603.8974546730159) scale(1) translate(-366.2226450510435 169.39077100520936) translate(6.368163355566236e-15 104) translate(0 0) translate(-61.416015625 0)" x="0" y="0" width="122.83203125" height="12" rx="0" ry="0" fill="white" stroke="none"></rect><text xml:space="preserve" transform="translate(1006.767578125 603.8974546730159) scale(1) translate(-366.2226450510435 169.39077100520936) translate(6.368163355566236e-15 104) translate(0 0) translate(-61.416015625 0)" x="92.822265625" y="8.5" font-family="sans-serif" font-size="10" font-weight="normal" text-anchor="end" fill="#000000">classification_name:</text><text xml:space="preserve" transform="translate(1006.767578125 603.8974546730159) scale(1) translate(-366.2226450510435 169.39077100520936) translate(6.368163355566236e-15 104) translate(0 0) translate(-61.416015625 0)" x="95.6005859375" y="8.5" font-family="sans-serif" font-size="10" font-weight="normal" text-anchor="start" fill="#000000">string</text><circle transform="translate(1006.767578125 603.8974546730159) scale(1)" cx="-366.22264505104346" cy="-487.8974546730159" r="102" fill="#ffffff" stroke="#000000" strokewidth="4"></circle><text xml:space="preserve" transform="translate(1006.767578125 603.8974546730159) scale(1) translate(-366.22264505104346 -487.8974546730159) scale(0.6015628984374999) translate(0 0) translate(0 0)" x="0" y="13" font-family="sans-serif" font-size="50" font-weight="normal" text-anchor="middle" fill="#000000">Specialization</text><rect transform="translate(1006.767578125 603.8974546730159) scale(1) translate(-366.22264505104346 -487.8974546730159) translate(6.368163355566236e-15 -116) translate(0 0) translate(-63.08837890625 0)" x="0" y="0" width="126.1767578125" height="12" rx="0" ry="0" fill="white" stroke="none"></rect><text xml:space="preserve" transform="translate(1006.767578125 603.8974546730159) scale(1) translate(-366.22264505104346 -487.8974546730159) translate(6.368163355566236e-15 -116) translate(0 0) translate(-63.08837890625 0)" x="96.1669921875" y="8.5" font-family="sans-serif" font-size="10" font-weight="normal" text-anchor="end" fill="#000000">specialization_name:</text><text xml:space="preserve" transform="translate(1006.767578125 603.8974546730159) scale(1) translate(-366.22264505104346 -487.8974546730159) translate(6.368163355566236e-15 -116) translate(0 0) translate(-63.08837890625 0)" x="98.9453125" y="8.5" font-family="sans-serif" font-size="10" font-weight="normal" text-anchor="start" fill="#000000">string</text></svg>